C:\Users\israe\Dropbox\PhDWork\ExperimentalData/subject1/145/P1S145W06_EMG(MVC)_40ms.mot
nRows=20
nColumns=16

name C:\Users\israe\Dropbox\PhDWork\ExperimentalData/subject1/145/P1S145W06_EMG(MVC)_40ms.mot
datacolumns 16
datarows 20
range 1.2770000000 1.2960000000
endheader
time	BF	ST	VL	VM	RF	TFL	GE	GA	TA	GL	GM	SO	ES	MF	VI_a
        1.2770000000	        0.0869084756	        0.0693213253	        0.0067840859	        0.0205034831	        0.0130726706	        0.0264999741	        0.0668636865	        0.0446873439	        0.0783928522	        0.0348576574	        0.0287040802	        0.0249806432	        0.8862856190	        0.9148371682	        0.0136437845	
        1.2780000000	        0.0886457722	        0.0709282492	        0.0067777056	        0.0205586676	        0.0130771893	        0.0265156991	        0.0667364817	        0.0450913635	        0.0780929525	        0.0348561459	        0.0285683455	        0.0249780577	        0.8864363356	        0.9147556640	        0.0136681866	
        1.2790000000	        0.0904847871	        0.0725861570	        0.0067723562	        0.0206147992	        0.0130797028	        0.0265292947	        0.0666050768	        0.0454924290	        0.0777946807	        0.0348572533	        0.0284364618	        0.0249764706	        0.8865873628	        0.9146728990	        0.0136935777	
        1.2800000000	        0.0924276172	        0.0742948410	        0.0067680688	        0.0206718183	        0.0130802476	        0.0265408864	        0.0664698256	        0.0458899330	        0.0774987973	        0.0348607255	        0.0283085457	        0.0249757704	        0.8867389117	        0.9145885981	        0.0137199435	
        1.2810000000	        0.0944763399	        0.0760544892	        0.0067648817	        0.0207297742	        0.0130789031	        0.0265506350	        0.0663311318	        0.0462833817	        0.0772059117	        0.0348664537	        0.0281846252	        0.0249758317	        0.8868907981	        0.9145025331	        0.0137473279	
        1.2820000000	        0.0966329953	        0.0778657169	        0.0067628403	        0.0207888202	        0.0130758064	        0.0265587402	        0.0661894531	        0.0466722739	        0.0769165616	        0.0348744434	        0.0280646465	        0.0249765414	        0.8870423526	        0.9144146928	        0.0137758303	
        1.2830000000	        0.0988995761	        0.0797293971	        0.0067620000	        0.0208491745	        0.0130711338	        0.0265654321	        0.0660452788	        0.0470560227	        0.0766312900	        0.0348847316	        0.0279484898	        0.0249778396	        0.8871928393	        0.9143253651	        0.0138055872	
        1.2840000000	        0.1012780007	        0.0816465305	        0.0067624306	        0.0209110833	        0.0130650623	        0.0265709634	        0.0658991993	        0.0474339132	        0.0763507045	        0.0348973375	        0.0278360010	        0.0249797158	        0.8873418791	        0.9142350884	        0.0138367569	
        1.2850000000	        0.1037700522	        0.0836181967	        0.0067642165	        0.0209747820	        0.0130577511	        0.0265755866	        0.0657519926	        0.0478050811	        0.0760755306	        0.0349122641	        0.0277270269	        0.0249821786	        0.8874895171	        0.9141445304	        0.0138694993	
        1.2860000000	        0.1063773409	        0.0856455004	        0.0067674537	        0.0210404695	        0.0130493477	        0.0265795270	        0.0656046059	        0.0481685037	        0.0758066321	        0.0349294998	        0.0276214163	        0.0249852398	        0.8876361320	        0.9140543525	        0.0139039616	
        1.2870000000	        0.1091012785	        0.0877294758	        0.0067722552	        0.0211083310	        0.0130399988	        0.0265830041	        0.0654580464	        0.0485230287	        0.0755449276	        0.0349489935	        0.0275189864	        0.0249889202	        0.8877823316	        0.9139650873	        0.0139402931	
        1.2880000000	        0.1119430715	        0.0898709974	        0.0067787590	        0.0211785731	        0.0130298527	        0.0265862793	        0.0653132619	        0.0488674855	        0.0752912314	        0.0349706575	        0.0274195163	        0.0249932519	        0.8879288331	        0.9138770488	        0.0139786660	
        1.2890000000	        0.1149037351	        0.0920707867	        0.0067871119	        0.0212514238	        0.0130190466	        0.0265896774	        0.0651710299	        0.0492008421	        0.0750461473	        0.0349944049	        0.0273227896	        0.0249982514	        0.8880763470	        0.9137902743	        0.0140192679	
        1.2900000000	        0.1179840327	        0.0943294840	        0.0067974493	        0.0213271285	        0.0130076953	        0.0265935929	        0.0650319095	        0.0495222705	        0.0748100564	        0.0350201663	        0.0272286122	        0.0250038949	        0.8882253817	        0.9137045308	        0.0140622889	
        1.2910000000	        0.1211843523	        0.0966476668	        0.0068098962	        0.0214059584	        0.0129958924	        0.0265984825	        0.0648963186	        0.0498310471	        0.0745831412	        0.0350478930	        0.0271367890	        0.0250101262	        0.8883759177	        0.9136194376	        0.0141079273	
        1.2920000000	        0.1245046313	        0.0990257868	        0.0068245794	        0.0214881985	        0.0129837091	        0.0266048291	        0.0647646449	        0.0501263833	        0.0743654044	        0.0350775648	        0.0270471371	        0.0250168799	        0.8885273289	        0.9135346481	        0.0141563890	
        1.2930000000	        0.1279443687	        0.1014640924	        0.0068416332	        0.0215741115	        0.0129711852	        0.0266131113	        0.0646372535	        0.0504073151	        0.0741566886	        0.0351091789	        0.0269595287	        0.0250240894	        0.8886787908	        0.9134499401	        0.0142078723	
        1.2940000000	        0.1315027034	        0.1039626114	        0.0068612102	        0.0216639228	        0.0129583326	        0.0266237868	        0.0645144259	        0.0506726670	        0.0739567069	        0.0351427208	        0.0268738774	        0.0250316795	        0.8888296879	        0.9133652033	        0.0142625665	
        1.2950000000	        0.1351784403	        0.1065211542	        0.0068834897	        0.0217578315	        0.0129451548	        0.0266372771	        0.0643963360	        0.0509210455	        0.0737650984	        0.0351781417	        0.0267900916	        0.0250395616	        0.8889796913	        0.9132804017	        0.0143206606	
        1.2960000000	        0.1389699654	        0.1091392759	        0.0069086692	        0.0218560043	        0.0129316634	        0.0266539631	        0.0642830829	        0.0511508414	        0.0735815335	        0.0352153640	        0.0267080639	        0.0250476424	        0.8891287054	        0.9131955261	        0.0143823368	
